{"title":"Backstreet Boys - Show 'Em [What You're Made Of] 1080p [Sbyky]","uid":9327485,"size":66934748,"categoryP":"video","categoryS":"music_videos","magnet":"?xt=urn:btih:1760fe6b3815f184246bedb278223b0c879eb00d&amp;dn=Backstreet+Boys+-+Show+%27Em+%5BWhat+You%27re+Made+Of%5D+1080p+%5BSbyky%5D&amp;tr=udp%3A%2F%2Ftracker.openbittorrent.com%3A80&amp;tr=udp%3A%2F%2Fopen.demonii.com%3A1337&amp;tr=udp%3A%2F%2Ftracker.coppersurfer.tk%3A6969&amp;tr=udp%3A%2F%2Fexodus.desync.com%3A6969","seeders":1,"leechers":0,"uploader":"Sbyky","files":1,"time":1386667779,"description":"[IMG]http://cdn.piczend.com/images/G0mn2Zmu/1386638075_showemwhatyouremadeof.jpg[/IMG]\n\nGeneral\nComplete name                            : Backstreet Boys - Show 'Em [What You're Made Of] 1080p [Sbyky].MP4\nFormat                                   : MPEG-4\nFormat profile                           : Base Media\nCodec ID                                 : isom\nFile size                                : 63.8 MiB\nDuration                                 : 3mn 58s\nOverall bit rate mode                    : Variable\nOverall bit rate                         : 2 244 Kbps\nEncoded date                             : UTC 2013-11-20 05:49:33\nTagged date                              : UTC 2013-11-20 05:49:33\n\nVideo\nID                                       : 1\nFormat                                   : AVC\nFormat/Info                              : Advanced Video Codec\nFormat profile                           : &lt;a class=&quot;__cf_email__&quot; href=&quot;/cdn-cgi/l/email-protection&quot; data-cfemail=&quot;87cfeee0efc7cbb3a9b7&quot;&gt;[email&amp;#160;protected]&lt;/a&gt;&lt;script data-cfhash='f9e31' type=&quot;text/javascript&quot;&gt;\n/* &lt;![CDATA[ */!function(){try{var t=&quot;currentScript&quot;in document?document.currentScript:function(){for(var t=document.getElementsByTagName(&quot;script&quot;),e=t.length;e--;)if(t[e].getAttribute(&quot;data-cfhash&quot;))return t[e]}();if(t&amp;&amp;t.previousSibling){var e,r,n,i,c=t.previousSibling,a=c.getAttribute(&quot;data-cfemail&quot;);if(a){for(e=&quot;&quot;,r=parseInt(a.substr(0,2),16),n=2;a.length-n;n+=2)i=parseInt(a.substr(n,2),16)^r,e+=String.fromCharCode(i);e=document.createTextNode(e),c.parentNode.replaceChild(e,c)}t.parentNode.removeChild(t);}}catch(u){}}()/* ]]&gt; */&lt;/script&gt;\nFormat settings, CABAC                   : Yes\nFormat settings, ReFrames                : 3 frames\nCodec ID                                 : avc1\nCodec ID/Info                            : Advanced Video Coding\nDuration                                 : 3mn 58s\nDuration_LastFrame                       : -41ms\nBit rate                                 : 1 987 Kbps\nWidth                                    : 1 920 pixels\nHeight                                   : 1 080 pixels\nDisplay aspect ratio                     : 16:9\nFrame rate mode                          : Constant\nFrame rate                               : 23.976 fps\nColor space                              : YUV\nChroma subsampling                       : 4:2:0\nBit depth                                : 8 bits\nScan type                                : Progressive\nBits/(Pixel*Frame)                       : 0.040\nStream size                              : 56.5 MiB (89%)\nEncoded date                             : UTC 2013-11-20 05:49:33\nTagged date                              : UTC 2013-11-20 05:49:33\n\nAudio\nID                                       : 2\nFormat                                   : AAC\nFormat/Info                              : Advanced Audio Codec\nFormat profile                           : LC\nCodec ID                                 : 40\nDuration                                 : 3mn 58s\nBit rate mode                            : Variable\nBit rate                                 : 254 Kbps\nChannel(s)                               : 2 channels\nChannel positions                        : Front: L R\nSampling rate                            : 44.1 KHz\nCompression mode                         : Lossy\nDelay relative to video                  : 42ms\nStream size                              : 7.22 MiB (11%)\nEncoded date                             : UTC 2013-11-20 05:39:54\nTagged date                              : UTC 2013-11-20 05:39:54\n\nShared By Sbyky\n[IMG]http://cdn.piczend.com/images/X3Ag13N3/1379453786_saythanks.gif[/IMG]\n[IMG]http://cdn.piczend.com/images/gGqhX2S8/1379453780_keepseeding.gif[/IMG]","torrent":{"xt":"urn:btih:1760fe6b3815f184246bedb278223b0c879eb00d","amp;dn":"Backstreet+Boys+-+Show+%27Em+%5BWhat+You%27re+Made+Of%5D+1080p+%5BSbyky%5D","amp;tr":["udp%3A%2F%2Ftracker.openbittorrent.com%3A80","udp%3A%2F%2Fopen.demonii.com%3A1337","udp%3A%2F%2Ftracker.coppersurfer.tk%3A6969","udp%3A%2F%2Fexodus.desync.com%3A6969"],"infoHash":"1760fe6b3815f184246bedb278223b0c879eb00d","infoHashBuffer":{"type":"Buffer","data":[23,96,254,107,56,21,241,132,36,107,237,178,120,34,59,12,135,158,176,13]},"announce":[],"urlList":[]}}